<mxfile host="app.diagrams.net" modified="2022-04-09T09:16:40.982Z" agent="5.0 (Macintosh; Intel Mac OS X 10_15_7) AppleWebKit/537.36 (KHTML, like Gecko) Chrome/100.0.4896.75 Safari/537.36" etag="FZUWYrh7fIEu7BjJn8ei" version="17.4.2" type="github">
  <diagram id="FrYfBvvXRcLxK1nQo7CX" name="Page-1">
    <mxGraphModel dx="700" dy="1987" grid="1" gridSize="10" guides="1" tooltips="1" connect="1" arrows="1" fold="1" page="1" pageScale="1" pageWidth="827" pageHeight="1169" math="0" shadow="0">
      <root>
        <mxCell id="0" />
        <mxCell id="1" parent="0" />
        <mxCell id="qRfJ5oU4SdA90AXdQ4_Y-1" value="" style="edgeStyle=entityRelationEdgeStyle;rounded=0;orthogonalLoop=1;jettySize=auto;html=1;" parent="1" source="qRfJ5oU4SdA90AXdQ4_Y-86" target="qRfJ5oU4SdA90AXdQ4_Y-8" edge="1">
          <mxGeometry relative="1" as="geometry">
            <mxPoint x="270" y="245" as="sourcePoint" />
          </mxGeometry>
        </mxCell>
        <mxCell id="qRfJ5oU4SdA90AXdQ4_Y-2" style="edgeStyle=entityRelationEdgeStyle;rounded=0;orthogonalLoop=1;jettySize=auto;html=1;" parent="1" source="qRfJ5oU4SdA90AXdQ4_Y-8" target="qRfJ5oU4SdA90AXdQ4_Y-10" edge="1">
          <mxGeometry relative="1" as="geometry" />
        </mxCell>
        <mxCell id="qRfJ5oU4SdA90AXdQ4_Y-3" style="edgeStyle=entityRelationEdgeStyle;rounded=0;orthogonalLoop=1;jettySize=auto;html=1;" parent="1" source="qRfJ5oU4SdA90AXdQ4_Y-8" target="qRfJ5oU4SdA90AXdQ4_Y-11" edge="1">
          <mxGeometry relative="1" as="geometry" />
        </mxCell>
        <mxCell id="qRfJ5oU4SdA90AXdQ4_Y-4" style="edgeStyle=entityRelationEdgeStyle;rounded=0;orthogonalLoop=1;jettySize=auto;html=1;entryX=0;entryY=0.5;entryDx=0;entryDy=0;" parent="1" source="qRfJ5oU4SdA90AXdQ4_Y-8" target="qRfJ5oU4SdA90AXdQ4_Y-12" edge="1">
          <mxGeometry relative="1" as="geometry" />
        </mxCell>
        <mxCell id="qRfJ5oU4SdA90AXdQ4_Y-5" style="edgeStyle=entityRelationEdgeStyle;rounded=0;orthogonalLoop=1;jettySize=auto;html=1;" parent="1" source="qRfJ5oU4SdA90AXdQ4_Y-8" target="qRfJ5oU4SdA90AXdQ4_Y-13" edge="1">
          <mxGeometry relative="1" as="geometry" />
        </mxCell>
        <mxCell id="qRfJ5oU4SdA90AXdQ4_Y-6" style="edgeStyle=entityRelationEdgeStyle;rounded=0;orthogonalLoop=1;jettySize=auto;html=1;" parent="1" source="qRfJ5oU4SdA90AXdQ4_Y-8" target="qRfJ5oU4SdA90AXdQ4_Y-37" edge="1">
          <mxGeometry relative="1" as="geometry" />
        </mxCell>
        <mxCell id="qRfJ5oU4SdA90AXdQ4_Y-7" value="" style="edgeStyle=entityRelationEdgeStyle;rounded=0;orthogonalLoop=1;jettySize=auto;html=1;" parent="1" source="qRfJ5oU4SdA90AXdQ4_Y-8" target="qRfJ5oU4SdA90AXdQ4_Y-58" edge="1">
          <mxGeometry relative="1" as="geometry" />
        </mxCell>
        <mxCell id="qRfJ5oU4SdA90AXdQ4_Y-8" value="获客" style="whiteSpace=wrap;html=1;rounded=1;" parent="1" vertex="1">
          <mxGeometry x="340" y="40" width="100" height="40" as="geometry" />
        </mxCell>
        <mxCell id="qRfJ5oU4SdA90AXdQ4_Y-9" value="" style="edgeStyle=entityRelationEdgeStyle;rounded=0;orthogonalLoop=1;jettySize=auto;html=1;" parent="1" source="qRfJ5oU4SdA90AXdQ4_Y-10" target="qRfJ5oU4SdA90AXdQ4_Y-19" edge="1">
          <mxGeometry relative="1" as="geometry" />
        </mxCell>
        <mxCell id="qRfJ5oU4SdA90AXdQ4_Y-10" value="智慧油客" style="whiteSpace=wrap;html=1;rounded=1;" parent="1" vertex="1">
          <mxGeometry x="570" y="-800" width="80" height="40" as="geometry" />
        </mxCell>
        <mxCell id="qRfJ5oU4SdA90AXdQ4_Y-11" value="团油" style="whiteSpace=wrap;html=1;rounded=1;" parent="1" vertex="1">
          <mxGeometry x="570" y="-650" width="90" height="40" as="geometry" />
        </mxCell>
        <mxCell id="qRfJ5oU4SdA90AXdQ4_Y-12" value="微油" style="whiteSpace=wrap;html=1;rounded=1;" parent="1" vertex="1">
          <mxGeometry x="570" y="-550" width="90" height="40" as="geometry" />
        </mxCell>
        <mxCell id="qRfJ5oU4SdA90AXdQ4_Y-13" value="加油宝" style="whiteSpace=wrap;html=1;rounded=1;" parent="1" vertex="1">
          <mxGeometry x="570" y="-470" width="90" height="40" as="geometry" />
        </mxCell>
        <mxCell id="qRfJ5oU4SdA90AXdQ4_Y-14" value="" style="edgeStyle=entityRelationEdgeStyle;rounded=0;orthogonalLoop=1;jettySize=auto;html=1;" parent="1" source="qRfJ5oU4SdA90AXdQ4_Y-19" target="qRfJ5oU4SdA90AXdQ4_Y-20" edge="1">
          <mxGeometry relative="1" as="geometry" />
        </mxCell>
        <mxCell id="qRfJ5oU4SdA90AXdQ4_Y-15" style="edgeStyle=entityRelationEdgeStyle;rounded=0;orthogonalLoop=1;jettySize=auto;html=1;" parent="1" source="qRfJ5oU4SdA90AXdQ4_Y-19" target="qRfJ5oU4SdA90AXdQ4_Y-21" edge="1">
          <mxGeometry relative="1" as="geometry" />
        </mxCell>
        <mxCell id="qRfJ5oU4SdA90AXdQ4_Y-16" style="edgeStyle=entityRelationEdgeStyle;rounded=0;orthogonalLoop=1;jettySize=auto;html=1;" parent="1" source="qRfJ5oU4SdA90AXdQ4_Y-19" target="qRfJ5oU4SdA90AXdQ4_Y-22" edge="1">
          <mxGeometry relative="1" as="geometry" />
        </mxCell>
        <mxCell id="qRfJ5oU4SdA90AXdQ4_Y-17" style="edgeStyle=entityRelationEdgeStyle;rounded=0;orthogonalLoop=1;jettySize=auto;html=1;" parent="1" source="qRfJ5oU4SdA90AXdQ4_Y-19" target="qRfJ5oU4SdA90AXdQ4_Y-23" edge="1">
          <mxGeometry relative="1" as="geometry" />
        </mxCell>
        <mxCell id="qRfJ5oU4SdA90AXdQ4_Y-18" style="edgeStyle=entityRelationEdgeStyle;rounded=0;orthogonalLoop=1;jettySize=auto;html=1;" parent="1" source="qRfJ5oU4SdA90AXdQ4_Y-19" target="qRfJ5oU4SdA90AXdQ4_Y-24" edge="1">
          <mxGeometry relative="1" as="geometry" />
        </mxCell>
        <mxCell id="qRfJ5oU4SdA90AXdQ4_Y-19" value="渠道" style="whiteSpace=wrap;html=1;rounded=1;" parent="1" vertex="1">
          <mxGeometry x="720" y="-870" width="70" height="40" as="geometry" />
        </mxCell>
        <mxCell id="qRfJ5oU4SdA90AXdQ4_Y-20" value="加油站（线下）" style="whiteSpace=wrap;html=1;rounded=1;" parent="1" vertex="1">
          <mxGeometry x="857" y="-690" width="113" height="40" as="geometry" />
        </mxCell>
        <mxCell id="qRfJ5oU4SdA90AXdQ4_Y-21" value="短信" style="whiteSpace=wrap;html=1;rounded=1;" parent="1" vertex="1">
          <mxGeometry x="857" y="-870" width="85" height="40" as="geometry" />
        </mxCell>
        <mxCell id="qRfJ5oU4SdA90AXdQ4_Y-22" value="朋友圈" style="whiteSpace=wrap;html=1;rounded=1;" parent="1" vertex="1">
          <mxGeometry x="857" y="-940" width="85" height="40" as="geometry" />
        </mxCell>
        <mxCell id="qRfJ5oU4SdA90AXdQ4_Y-23" value="公众号" style="whiteSpace=wrap;html=1;rounded=1;" parent="1" vertex="1">
          <mxGeometry x="857" y="-810" width="85" height="40" as="geometry" />
        </mxCell>
        <mxCell id="qRfJ5oU4SdA90AXdQ4_Y-24" value="小程序" style="whiteSpace=wrap;html=1;rounded=1;" parent="1" vertex="1">
          <mxGeometry x="857" y="-750" width="85" height="40" as="geometry" />
        </mxCell>
        <mxCell id="qRfJ5oU4SdA90AXdQ4_Y-25" value="" style="edgeStyle=entityRelationEdgeStyle;rounded=0;orthogonalLoop=1;jettySize=auto;html=1;" parent="1" source="qRfJ5oU4SdA90AXdQ4_Y-37" target="qRfJ5oU4SdA90AXdQ4_Y-38" edge="1">
          <mxGeometry relative="1" as="geometry" />
        </mxCell>
        <mxCell id="qRfJ5oU4SdA90AXdQ4_Y-26" style="edgeStyle=entityRelationEdgeStyle;rounded=0;orthogonalLoop=1;jettySize=auto;html=1;" parent="1" source="qRfJ5oU4SdA90AXdQ4_Y-37" target="qRfJ5oU4SdA90AXdQ4_Y-39" edge="1">
          <mxGeometry relative="1" as="geometry" />
        </mxCell>
        <mxCell id="qRfJ5oU4SdA90AXdQ4_Y-27" style="edgeStyle=entityRelationEdgeStyle;rounded=0;orthogonalLoop=1;jettySize=auto;html=1;" parent="1" source="qRfJ5oU4SdA90AXdQ4_Y-37" target="qRfJ5oU4SdA90AXdQ4_Y-40" edge="1">
          <mxGeometry relative="1" as="geometry" />
        </mxCell>
        <mxCell id="qRfJ5oU4SdA90AXdQ4_Y-28" style="edgeStyle=entityRelationEdgeStyle;rounded=0;orthogonalLoop=1;jettySize=auto;html=1;" parent="1" source="qRfJ5oU4SdA90AXdQ4_Y-37" target="qRfJ5oU4SdA90AXdQ4_Y-44" edge="1">
          <mxGeometry relative="1" as="geometry" />
        </mxCell>
        <mxCell id="qRfJ5oU4SdA90AXdQ4_Y-29" style="edgeStyle=entityRelationEdgeStyle;rounded=0;orthogonalLoop=1;jettySize=auto;html=1;" parent="1" source="qRfJ5oU4SdA90AXdQ4_Y-37" target="qRfJ5oU4SdA90AXdQ4_Y-45" edge="1">
          <mxGeometry relative="1" as="geometry" />
        </mxCell>
        <mxCell id="qRfJ5oU4SdA90AXdQ4_Y-30" style="edgeStyle=entityRelationEdgeStyle;rounded=0;orthogonalLoop=1;jettySize=auto;html=1;" parent="1" source="qRfJ5oU4SdA90AXdQ4_Y-37" target="qRfJ5oU4SdA90AXdQ4_Y-46" edge="1">
          <mxGeometry relative="1" as="geometry" />
        </mxCell>
        <mxCell id="qRfJ5oU4SdA90AXdQ4_Y-31" style="edgeStyle=entityRelationEdgeStyle;rounded=0;orthogonalLoop=1;jettySize=auto;html=1;" parent="1" source="qRfJ5oU4SdA90AXdQ4_Y-37" target="qRfJ5oU4SdA90AXdQ4_Y-49" edge="1">
          <mxGeometry relative="1" as="geometry" />
        </mxCell>
        <mxCell id="qRfJ5oU4SdA90AXdQ4_Y-32" style="edgeStyle=entityRelationEdgeStyle;rounded=0;orthogonalLoop=1;jettySize=auto;html=1;" parent="1" source="qRfJ5oU4SdA90AXdQ4_Y-37" target="qRfJ5oU4SdA90AXdQ4_Y-50" edge="1">
          <mxGeometry relative="1" as="geometry" />
        </mxCell>
        <mxCell id="qRfJ5oU4SdA90AXdQ4_Y-33" style="edgeStyle=entityRelationEdgeStyle;rounded=0;orthogonalLoop=1;jettySize=auto;html=1;entryX=0;entryY=0.75;entryDx=0;entryDy=0;" parent="1" source="qRfJ5oU4SdA90AXdQ4_Y-37" target="qRfJ5oU4SdA90AXdQ4_Y-51" edge="1">
          <mxGeometry relative="1" as="geometry" />
        </mxCell>
        <mxCell id="qRfJ5oU4SdA90AXdQ4_Y-34" style="edgeStyle=entityRelationEdgeStyle;rounded=0;orthogonalLoop=1;jettySize=auto;html=1;" parent="1" source="qRfJ5oU4SdA90AXdQ4_Y-37" target="qRfJ5oU4SdA90AXdQ4_Y-52" edge="1">
          <mxGeometry relative="1" as="geometry" />
        </mxCell>
        <mxCell id="qRfJ5oU4SdA90AXdQ4_Y-35" style="edgeStyle=entityRelationEdgeStyle;rounded=0;orthogonalLoop=1;jettySize=auto;html=1;" parent="1" source="qRfJ5oU4SdA90AXdQ4_Y-37" target="qRfJ5oU4SdA90AXdQ4_Y-53" edge="1">
          <mxGeometry relative="1" as="geometry" />
        </mxCell>
        <mxCell id="qRfJ5oU4SdA90AXdQ4_Y-36" style="edgeStyle=entityRelationEdgeStyle;rounded=0;orthogonalLoop=1;jettySize=auto;html=1;" parent="1" source="qRfJ5oU4SdA90AXdQ4_Y-37" target="qRfJ5oU4SdA90AXdQ4_Y-54" edge="1">
          <mxGeometry relative="1" as="geometry" />
        </mxCell>
        <mxCell id="qRfJ5oU4SdA90AXdQ4_Y-37" value="渠道" style="whiteSpace=wrap;html=1;rounded=1;" parent="1" vertex="1">
          <mxGeometry x="570" y="-125" width="90" height="40" as="geometry" />
        </mxCell>
        <mxCell id="qRfJ5oU4SdA90AXdQ4_Y-38" value="加油站（线下）" style="whiteSpace=wrap;html=1;rounded=1;" parent="1" vertex="1">
          <mxGeometry x="805.5" y="344.5" width="113" height="40" as="geometry" />
        </mxCell>
        <mxCell id="qRfJ5oU4SdA90AXdQ4_Y-39" value="短信" style="whiteSpace=wrap;html=1;rounded=1;" parent="1" vertex="1">
          <mxGeometry x="805.5" y="-190" width="85" height="40" as="geometry" />
        </mxCell>
        <mxCell id="qRfJ5oU4SdA90AXdQ4_Y-40" value="朋友圈" style="whiteSpace=wrap;html=1;rounded=1;" parent="1" vertex="1">
          <mxGeometry x="805.5" y="-260" width="85" height="40" as="geometry" />
        </mxCell>
        <mxCell id="qRfJ5oU4SdA90AXdQ4_Y-41" value="" style="edgeStyle=entityRelationEdgeStyle;rounded=0;orthogonalLoop=1;jettySize=auto;html=1;" parent="1" source="qRfJ5oU4SdA90AXdQ4_Y-44" target="qRfJ5oU4SdA90AXdQ4_Y-47" edge="1">
          <mxGeometry relative="1" as="geometry" />
        </mxCell>
        <mxCell id="qRfJ5oU4SdA90AXdQ4_Y-42" value="" style="edgeStyle=entityRelationEdgeStyle;rounded=0;orthogonalLoop=1;jettySize=auto;html=1;" parent="1" source="qRfJ5oU4SdA90AXdQ4_Y-44" target="qRfJ5oU4SdA90AXdQ4_Y-47" edge="1">
          <mxGeometry relative="1" as="geometry" />
        </mxCell>
        <mxCell id="qRfJ5oU4SdA90AXdQ4_Y-43" style="edgeStyle=entityRelationEdgeStyle;rounded=0;orthogonalLoop=1;jettySize=auto;html=1;" parent="1" source="qRfJ5oU4SdA90AXdQ4_Y-44" target="qRfJ5oU4SdA90AXdQ4_Y-48" edge="1">
          <mxGeometry relative="1" as="geometry" />
        </mxCell>
        <mxCell id="qRfJ5oU4SdA90AXdQ4_Y-44" value="微信广告" style="whiteSpace=wrap;html=1;rounded=1;" parent="1" vertex="1">
          <mxGeometry x="805.5" y="-130" width="85" height="40" as="geometry" />
        </mxCell>
        <mxCell id="qRfJ5oU4SdA90AXdQ4_Y-45" value="公众号" style="whiteSpace=wrap;html=1;rounded=1;" parent="1" vertex="1">
          <mxGeometry x="805.5" y="-60" width="85" height="40" as="geometry" />
        </mxCell>
        <mxCell id="qRfJ5oU4SdA90AXdQ4_Y-46" value="小程序" style="whiteSpace=wrap;html=1;rounded=1;" parent="1" vertex="1">
          <mxGeometry x="805.5" y="10" width="85" height="40" as="geometry" />
        </mxCell>
        <mxCell id="qRfJ5oU4SdA90AXdQ4_Y-47" value="朋友圈广告" style="whiteSpace=wrap;html=1;rounded=1;" parent="1" vertex="1">
          <mxGeometry x="978.5" y="-160" width="85.5" height="40" as="geometry" />
        </mxCell>
        <mxCell id="qRfJ5oU4SdA90AXdQ4_Y-48" value="小程序广告" style="whiteSpace=wrap;html=1;rounded=1;" parent="1" vertex="1">
          <mxGeometry x="978.5" y="-90" width="85.5" height="40" as="geometry" />
        </mxCell>
        <mxCell id="qRfJ5oU4SdA90AXdQ4_Y-49" value="骑士卡" style="whiteSpace=wrap;html=1;rounded=1;" parent="1" vertex="1">
          <mxGeometry x="805.5" y="85" width="85" height="40" as="geometry" />
        </mxCell>
        <mxCell id="qRfJ5oU4SdA90AXdQ4_Y-50" value="高德" style="whiteSpace=wrap;html=1;rounded=1;" parent="1" vertex="1">
          <mxGeometry x="806" y="155" width="85" height="40" as="geometry" />
        </mxCell>
        <mxCell id="qRfJ5oU4SdA90AXdQ4_Y-51" value="腾讯出行" style="whiteSpace=wrap;html=1;rounded=1;" parent="1" vertex="1">
          <mxGeometry x="805.5" y="215" width="85" height="40" as="geometry" />
        </mxCell>
        <mxCell id="qRfJ5oU4SdA90AXdQ4_Y-52" value="滴滴出行" style="whiteSpace=wrap;html=1;rounded=1;" parent="1" vertex="1">
          <mxGeometry x="806" y="279.5" width="85" height="40" as="geometry" />
        </mxCell>
        <mxCell id="qRfJ5oU4SdA90AXdQ4_Y-53" value="微信" style="whiteSpace=wrap;html=1;rounded=1;" parent="1" vertex="1">
          <mxGeometry x="805.5" y="-390" width="85" height="40" as="geometry" />
        </mxCell>
        <mxCell id="qRfJ5oU4SdA90AXdQ4_Y-54" value="企业微信" style="whiteSpace=wrap;html=1;rounded=1;" parent="1" vertex="1">
          <mxGeometry x="806" y="-320" width="85" height="40" as="geometry" />
        </mxCell>
        <mxCell id="qRfJ5oU4SdA90AXdQ4_Y-55" value="" style="edgeStyle=entityRelationEdgeStyle;rounded=0;orthogonalLoop=1;jettySize=auto;html=1;" parent="1" source="qRfJ5oU4SdA90AXdQ4_Y-58" target="qRfJ5oU4SdA90AXdQ4_Y-66" edge="1">
          <mxGeometry relative="1" as="geometry" />
        </mxCell>
        <mxCell id="qRfJ5oU4SdA90AXdQ4_Y-56" style="edgeStyle=entityRelationEdgeStyle;rounded=0;orthogonalLoop=1;jettySize=auto;html=1;" parent="1" source="qRfJ5oU4SdA90AXdQ4_Y-58" target="qRfJ5oU4SdA90AXdQ4_Y-70" edge="1">
          <mxGeometry relative="1" as="geometry" />
        </mxCell>
        <mxCell id="qRfJ5oU4SdA90AXdQ4_Y-57" style="edgeStyle=entityRelationEdgeStyle;rounded=0;orthogonalLoop=1;jettySize=auto;html=1;entryX=0;entryY=0.5;entryDx=0;entryDy=0;" parent="1" source="qRfJ5oU4SdA90AXdQ4_Y-58" target="qRfJ5oU4SdA90AXdQ4_Y-73" edge="1">
          <mxGeometry relative="1" as="geometry" />
        </mxCell>
        <mxCell id="qRfJ5oU4SdA90AXdQ4_Y-58" value="落地页方式" style="whiteSpace=wrap;html=1;rounded=1;" parent="1" vertex="1">
          <mxGeometry x="570" y="520" width="85" height="40" as="geometry" />
        </mxCell>
        <mxCell id="qRfJ5oU4SdA90AXdQ4_Y-59" style="edgeStyle=entityRelationEdgeStyle;rounded=0;orthogonalLoop=1;jettySize=auto;html=1;" parent="1" source="qRfJ5oU4SdA90AXdQ4_Y-66" target="qRfJ5oU4SdA90AXdQ4_Y-74" edge="1">
          <mxGeometry relative="1" as="geometry" />
        </mxCell>
        <mxCell id="qRfJ5oU4SdA90AXdQ4_Y-60" style="edgeStyle=entityRelationEdgeStyle;rounded=0;orthogonalLoop=1;jettySize=auto;html=1;" parent="1" source="qRfJ5oU4SdA90AXdQ4_Y-66" target="qRfJ5oU4SdA90AXdQ4_Y-75" edge="1">
          <mxGeometry relative="1" as="geometry" />
        </mxCell>
        <mxCell id="qRfJ5oU4SdA90AXdQ4_Y-61" style="edgeStyle=entityRelationEdgeStyle;rounded=0;orthogonalLoop=1;jettySize=auto;html=1;entryX=0;entryY=0.5;entryDx=0;entryDy=0;" parent="1" source="qRfJ5oU4SdA90AXdQ4_Y-66" target="qRfJ5oU4SdA90AXdQ4_Y-76" edge="1">
          <mxGeometry relative="1" as="geometry" />
        </mxCell>
        <mxCell id="qRfJ5oU4SdA90AXdQ4_Y-62" style="edgeStyle=entityRelationEdgeStyle;rounded=0;orthogonalLoop=1;jettySize=auto;html=1;" parent="1" source="qRfJ5oU4SdA90AXdQ4_Y-66" target="qRfJ5oU4SdA90AXdQ4_Y-77" edge="1">
          <mxGeometry relative="1" as="geometry" />
        </mxCell>
        <mxCell id="qRfJ5oU4SdA90AXdQ4_Y-63" style="edgeStyle=entityRelationEdgeStyle;rounded=0;orthogonalLoop=1;jettySize=auto;html=1;" parent="1" source="qRfJ5oU4SdA90AXdQ4_Y-66" target="qRfJ5oU4SdA90AXdQ4_Y-78" edge="1">
          <mxGeometry relative="1" as="geometry" />
        </mxCell>
        <mxCell id="qRfJ5oU4SdA90AXdQ4_Y-64" style="edgeStyle=entityRelationEdgeStyle;rounded=0;orthogonalLoop=1;jettySize=auto;html=1;" parent="1" source="qRfJ5oU4SdA90AXdQ4_Y-66" target="qRfJ5oU4SdA90AXdQ4_Y-79" edge="1">
          <mxGeometry relative="1" as="geometry" />
        </mxCell>
        <mxCell id="qRfJ5oU4SdA90AXdQ4_Y-65" style="edgeStyle=entityRelationEdgeStyle;rounded=0;orthogonalLoop=1;jettySize=auto;html=1;" parent="1" source="qRfJ5oU4SdA90AXdQ4_Y-66" target="qRfJ5oU4SdA90AXdQ4_Y-80" edge="1">
          <mxGeometry relative="1" as="geometry" />
        </mxCell>
        <mxCell id="qRfJ5oU4SdA90AXdQ4_Y-66" value="优惠券" style="whiteSpace=wrap;html=1;rounded=1;" parent="1" vertex="1">
          <mxGeometry x="798" y="480" width="82" height="40" as="geometry" />
        </mxCell>
        <mxCell id="qRfJ5oU4SdA90AXdQ4_Y-67" style="edgeStyle=entityRelationEdgeStyle;rounded=0;orthogonalLoop=1;jettySize=auto;html=1;" parent="1" source="qRfJ5oU4SdA90AXdQ4_Y-70" target="qRfJ5oU4SdA90AXdQ4_Y-83" edge="1">
          <mxGeometry relative="1" as="geometry" />
        </mxCell>
        <mxCell id="qRfJ5oU4SdA90AXdQ4_Y-68" style="edgeStyle=entityRelationEdgeStyle;rounded=0;orthogonalLoop=1;jettySize=auto;html=1;" parent="1" source="qRfJ5oU4SdA90AXdQ4_Y-70" target="qRfJ5oU4SdA90AXdQ4_Y-84" edge="1">
          <mxGeometry relative="1" as="geometry" />
        </mxCell>
        <mxCell id="qRfJ5oU4SdA90AXdQ4_Y-69" style="edgeStyle=entityRelationEdgeStyle;rounded=0;orthogonalLoop=1;jettySize=auto;html=1;" parent="1" source="qRfJ5oU4SdA90AXdQ4_Y-70" target="qRfJ5oU4SdA90AXdQ4_Y-85" edge="1">
          <mxGeometry relative="1" as="geometry" />
        </mxCell>
        <mxCell id="qRfJ5oU4SdA90AXdQ4_Y-70" value="会员" style="whiteSpace=wrap;html=1;rounded=1;" parent="1" vertex="1">
          <mxGeometry x="798" y="640" width="82" height="40" as="geometry" />
        </mxCell>
        <mxCell id="qRfJ5oU4SdA90AXdQ4_Y-71" value="" style="edgeStyle=entityRelationEdgeStyle;rounded=0;orthogonalLoop=1;jettySize=auto;html=1;" parent="1" source="qRfJ5oU4SdA90AXdQ4_Y-73" target="qRfJ5oU4SdA90AXdQ4_Y-81" edge="1">
          <mxGeometry relative="1" as="geometry" />
        </mxCell>
        <mxCell id="qRfJ5oU4SdA90AXdQ4_Y-72" style="edgeStyle=entityRelationEdgeStyle;rounded=0;orthogonalLoop=1;jettySize=auto;html=1;" parent="1" source="qRfJ5oU4SdA90AXdQ4_Y-73" target="qRfJ5oU4SdA90AXdQ4_Y-82" edge="1">
          <mxGeometry relative="1" as="geometry" />
        </mxCell>
        <mxCell id="qRfJ5oU4SdA90AXdQ4_Y-73" value="营销模板" style="whiteSpace=wrap;html=1;rounded=1;" parent="1" vertex="1">
          <mxGeometry x="806" y="885" width="82" height="40" as="geometry" />
        </mxCell>
        <mxCell id="qRfJ5oU4SdA90AXdQ4_Y-74" value="油品券" style="whiteSpace=wrap;html=1;rounded=1;" parent="1" vertex="1">
          <mxGeometry x="1140" y="185" width="82" height="40" as="geometry" />
        </mxCell>
        <mxCell id="qRfJ5oU4SdA90AXdQ4_Y-75" value="非油品券" style="whiteSpace=wrap;html=1;rounded=1;" parent="1" vertex="1">
          <mxGeometry x="1140" y="245" width="82" height="40" as="geometry" />
        </mxCell>
        <mxCell id="qRfJ5oU4SdA90AXdQ4_Y-76" value="礼品券" style="whiteSpace=wrap;html=1;rounded=1;" parent="1" vertex="1">
          <mxGeometry x="1140" y="310" width="82" height="40" as="geometry" />
        </mxCell>
        <mxCell id="qRfJ5oU4SdA90AXdQ4_Y-77" value="合作券" style="whiteSpace=wrap;html=1;rounded=1;" parent="1" vertex="1">
          <mxGeometry x="1140" y="369.5" width="82" height="40" as="geometry" />
        </mxCell>
        <mxCell id="qRfJ5oU4SdA90AXdQ4_Y-78" value="立减券" style="whiteSpace=wrap;html=1;rounded=1;" parent="1" vertex="1">
          <mxGeometry x="1140" y="429.5" width="82" height="40" as="geometry" />
        </mxCell>
        <mxCell id="qRfJ5oU4SdA90AXdQ4_Y-79" value="折扣券" style="whiteSpace=wrap;html=1;rounded=1;" parent="1" vertex="1">
          <mxGeometry x="1140" y="485" width="82" height="40" as="geometry" />
        </mxCell>
        <mxCell id="qRfJ5oU4SdA90AXdQ4_Y-80" value="满返券" style="whiteSpace=wrap;html=1;rounded=1;" parent="1" vertex="1">
          <mxGeometry x="1140" y="545" width="82" height="40" as="geometry" />
        </mxCell>
        <mxCell id="qRfJ5oU4SdA90AXdQ4_Y-81" value="营销" style="whiteSpace=wrap;html=1;rounded=1;" parent="1" vertex="1">
          <mxGeometry x="968" y="865" width="89" height="40" as="geometry" />
        </mxCell>
        <mxCell id="qRfJ5oU4SdA90AXdQ4_Y-82" value="互动游戏" style="whiteSpace=wrap;html=1;rounded=1;" parent="1" vertex="1">
          <mxGeometry x="968" y="940" width="89" height="40" as="geometry" />
        </mxCell>
        <mxCell id="qRfJ5oU4SdA90AXdQ4_Y-83" value="会员特权" style="whiteSpace=wrap;html=1;rounded=1;" parent="1" vertex="1">
          <mxGeometry x="975" y="610" width="89" height="40" as="geometry" />
        </mxCell>
        <mxCell id="qRfJ5oU4SdA90AXdQ4_Y-84" value="会员礼券" style="whiteSpace=wrap;html=1;rounded=1;" parent="1" vertex="1">
          <mxGeometry x="975" y="680" width="89" height="40" as="geometry" />
        </mxCell>
        <mxCell id="qRfJ5oU4SdA90AXdQ4_Y-85" value="会员邀请" style="whiteSpace=wrap;html=1;rounded=1;" parent="1" vertex="1">
          <mxGeometry x="975" y="740" width="89" height="40" as="geometry" />
        </mxCell>
        <mxCell id="qRfJ5oU4SdA90AXdQ4_Y-86" value="SCRM" style="whiteSpace=wrap;html=1;rounded=1;" parent="1" vertex="1">
          <mxGeometry x="160" y="40" width="100" height="40" as="geometry" />
        </mxCell>
      </root>
    </mxGraphModel>
  </diagram>
</mxfile>
